<svg width="42" height="26" viewBox="0 0 42 26" fill="none" xmlns="http://www.w3.org/2000/svg">
<g clip-path="url(#clip0_19657_14211)">
<path fill-rule="evenodd" clip-rule="evenodd" d="M14.3546 18.6285C14.3008 18.5733 14.2371 18.5303 14.1631 18.4997C14.0893 18.4692 14.0083 18.4538 13.9204 18.4538C13.8738 18.4538 13.8256 18.4579 13.7754 18.4662C13.7253 18.4742 13.6763 18.4889 13.6281 18.5095C13.58 18.5303 13.5342 18.559 13.4909 18.5957C13.4475 18.6323 13.4097 18.6786 13.3777 18.7344C13.326 18.6469 13.2559 18.5783 13.1676 18.5284C13.0792 18.4788 12.9781 18.4538 12.8644 18.4538C12.8261 18.4538 12.7867 18.4574 12.7457 18.4644C12.7049 18.4715 12.6643 18.4838 12.624 18.5012C12.5837 18.5188 12.5452 18.5425 12.5085 18.5726C12.4717 18.6027 12.4385 18.6408 12.4085 18.6867V18.4947H12.0859V20.0665H12.4115V19.1953C12.4115 19.1286 12.4218 19.0693 12.4425 19.0172C12.4631 18.9652 12.4909 18.9218 12.5255 18.8869C12.5601 18.8517 12.6006 18.8253 12.6472 18.8073C12.6938 18.7893 12.7433 18.7801 12.796 18.7801C12.9056 18.7801 12.9906 18.8156 13.051 18.8869C13.1114 18.9579 13.1417 19.0597 13.1417 19.192V20.0665H13.4673V19.1953C13.4673 19.1286 13.4777 19.0693 13.4984 19.0172C13.519 18.9652 13.5467 18.9218 13.5813 18.8869C13.6159 18.8517 13.6565 18.8253 13.703 18.8073C13.7495 18.7893 13.7991 18.7801 13.8519 18.7801C13.9614 18.7801 14.0464 18.8156 14.1069 18.8869C14.1675 18.9579 14.1976 19.0597 14.1976 19.192V20.0665H14.5232V19.0787C14.5232 18.9869 14.5084 18.9027 14.479 18.8261C14.4496 18.7495 14.4079 18.6836 14.3543 18.6284L14.3546 18.6285ZM29.6426 19.9604V19.9864H29.6718C29.6778 19.9864 29.6825 19.9855 29.6856 19.9836C29.6889 19.9817 29.6905 19.9784 29.6905 19.9736C29.6905 19.9689 29.6889 19.9656 29.6856 19.9636C29.6824 19.9614 29.6778 19.9604 29.6718 19.9604H29.6426ZM29.6726 19.9257C29.6916 19.9257 29.7061 19.93 29.7159 19.9387C29.7257 19.9474 29.7307 19.9588 29.7307 19.9735C29.7307 19.9849 29.7272 19.9943 29.7201 20.0018C29.713 20.0092 29.7027 20.0143 29.6893 20.0165L29.7325 20.0676H29.6858L29.6472 20.018H29.6427V20.0676H29.6037V19.9256H29.6727L29.6726 19.9257ZM29.6635 20.1128C29.679 20.1128 29.6937 20.1097 29.7074 20.1036C29.721 20.0975 29.7331 20.0892 29.7432 20.0789C29.7533 20.0684 29.7612 20.056 29.7672 20.042C29.7729 20.028 29.7758 20.0129 29.7758 19.9966C29.7758 19.9806 29.7729 19.9656 29.7672 19.9514C29.7614 19.9373 29.7534 19.925 29.7432 19.9147C29.7332 19.9044 29.7211 19.8961 29.7074 19.8901C29.6937 19.8841 29.679 19.881 29.6635 19.881C29.6474 19.881 29.6326 19.8841 29.6188 19.8901C29.6049 19.8962 29.5929 19.9044 29.5827 19.9147C29.5726 19.925 29.5644 19.9373 29.5586 19.9514C29.5529 19.9656 29.5499 19.9806 29.5499 19.9966C29.5499 20.0128 29.5528 20.028 29.5586 20.042C29.5644 20.056 29.5724 20.0684 29.5827 20.0789C29.5929 20.0892 29.6049 20.0975 29.6188 20.1036C29.6326 20.1097 29.6474 20.1128 29.6635 20.1128ZM29.6635 19.8365C29.6858 19.8365 29.7067 19.8407 29.7262 19.8493C29.7458 19.8576 29.7629 19.8692 29.7773 19.8836C29.7919 19.8981 29.8033 19.915 29.8117 19.9344C29.8201 19.9539 29.8242 19.9745 29.8242 19.9967C29.8242 20.0187 29.8201 20.0394 29.8117 20.0588C29.8033 20.0782 29.792 20.0954 29.7773 20.11C29.7629 20.1248 29.7458 20.1362 29.7262 20.1447C29.7067 20.1532 29.6858 20.1574 29.6635 20.1574C29.6407 20.1574 29.6194 20.1532 29.5997 20.1447C29.5799 20.1362 29.5629 20.1248 29.5483 20.11C29.5338 20.0954 29.5224 20.0783 29.5142 20.0588C29.5059 20.0394 29.5017 20.0185 29.5017 19.9967C29.5017 19.9745 29.5058 19.954 29.5142 19.9344C29.5224 19.915 29.5338 19.898 29.5483 19.8836C29.5629 19.8692 29.5799 19.8576 29.5997 19.8493C29.6194 19.8407 29.6407 19.8365 29.6635 19.8365ZM23.206 18.9174C23.2486 18.8731 23.2994 18.8386 23.3581 18.8139C23.4169 18.7893 23.4804 18.777 23.5488 18.777C23.6241 18.777 23.6939 18.7892 23.7585 18.8139C23.821 18.8377 23.8752 18.871 23.9211 18.9132L24.0823 18.6386C24.0219 18.5891 23.9538 18.5485 23.8781 18.517C23.7771 18.475 23.6675 18.4539 23.5488 18.4539C23.4303 18.4539 23.3205 18.475 23.2195 18.517C23.1186 18.5591 23.0316 18.6172 22.9584 18.691C22.8853 18.7647 22.8279 18.8521 22.7863 18.9527C22.7446 19.0533 22.7237 19.1626 22.7237 19.2807C22.7237 19.399 22.7445 19.5083 22.7863 19.609C22.8279 19.7096 22.8853 19.7967 22.9584 19.8707C23.0315 19.9446 23.1186 20.0025 23.2195 20.0447C23.3205 20.0868 23.4303 20.1078 23.5488 20.1078C23.6675 20.1078 23.7771 20.0868 23.8781 20.0447C23.9538 20.013 24.0219 19.9726 24.0823 19.923L23.9211 19.6484C23.8752 19.6906 23.821 19.7238 23.7585 19.7476C23.6939 19.7723 23.624 19.7846 23.5488 19.7846C23.4806 19.7846 23.4169 19.7724 23.3581 19.7476C23.2994 19.723 23.2486 19.6886 23.206 19.6443C23.1633 19.6001 23.1296 19.547 23.1051 19.4853C23.0806 19.4233 23.0684 19.3553 23.0684 19.2809C23.0684 19.2065 23.0806 19.1384 23.1051 19.0767C23.1296 19.0147 23.1634 18.9618 23.2061 18.9175L23.206 18.9174ZM28.6105 19.481C28.588 19.5423 28.5564 19.5954 28.5158 19.6401C28.4752 19.685 28.4266 19.7202 28.3701 19.7459C28.3136 19.7716 28.2504 19.7845 28.1812 19.7845C28.1085 19.7845 28.0436 19.7711 27.9866 19.7443C27.9294 19.7175 27.8811 19.6814 27.8415 19.636C27.802 19.5906 27.7716 19.5373 27.7502 19.4761C27.7288 19.4148 27.7182 19.3499 27.7182 19.2809C27.7182 19.212 27.7289 19.1469 27.7502 19.0856C27.7716 19.0244 27.802 18.9711 27.8415 18.9257C27.8811 18.8803 27.9294 18.8442 27.9866 18.8174C28.0436 18.7905 28.1086 18.7771 28.1812 18.7771C28.2504 18.7771 28.3136 18.79 28.3701 18.8157C28.4268 18.8414 28.4753 18.8767 28.5158 18.9216C28.5564 18.9665 28.5879 19.0194 28.6105 19.0808C28.6329 19.142 28.6439 19.2085 28.6439 19.2809C28.6439 19.3532 28.6327 19.4199 28.6105 19.4811V19.481ZM28.6233 17.856V18.6853C28.5697 18.6154 28.5036 18.5591 28.4245 18.5172C28.3455 18.475 28.2509 18.4539 28.141 18.4539C28.033 18.4539 27.9326 18.4743 27.8397 18.5154C27.7468 18.5564 27.6656 18.6136 27.5962 18.6868C27.5267 18.76 27.4722 18.8472 27.4328 18.9485C27.393 19.0496 27.3734 19.1603 27.3734 19.2807C27.3734 19.4011 27.393 19.5118 27.4328 19.613C27.4722 19.7142 27.5267 19.8015 27.5962 19.8748C27.6655 19.948 27.7467 20.0051 27.8397 20.0462C27.9326 20.0873 28.033 20.1077 28.141 20.1077C28.2508 20.1077 28.3455 20.0869 28.4245 20.0453C28.5035 20.0039 28.5697 19.948 28.6233 19.8781V20.0667H28.958V17.856H28.6233ZM27.0593 18.4539C26.9652 18.4539 26.8804 18.4714 26.8045 18.5063C26.7287 18.5414 26.6652 18.6256 26.614 18.7011V18.495H26.3099V20.0667H26.6172V19.202C26.6172 19.1353 26.6262 19.0757 26.6445 19.0232C26.6627 18.9707 26.6877 18.9264 26.7197 18.8903C26.7517 18.8542 26.7903 18.8268 26.8352 18.8082C26.8801 18.7896 26.9292 18.7803 26.9825 18.7803C27.0232 18.7803 27.0669 18.7852 27.1138 18.7952C27.1379 18.8002 27.1602 18.8063 27.1811 18.8136L27.2801 18.4855C27.2532 18.4767 27.2261 18.4693 27.198 18.4645C27.1568 18.4574 27.1106 18.4539 27.0594 18.4539H27.0593ZM22.4045 18.4539C22.3106 18.4539 22.2257 18.4714 22.1498 18.5063C22.074 18.5414 22.0105 18.6256 21.9592 18.7011V18.495H21.6552V20.0667H21.9624V19.202C21.9624 19.1353 21.9715 19.0757 21.9897 19.0232C22.0079 18.9707 22.0329 18.9264 22.065 18.8903C22.0972 18.8542 22.1355 18.8268 22.1805 18.8082C22.2252 18.7896 22.2744 18.7803 22.3278 18.7803C22.3685 18.7803 22.4122 18.7852 22.4593 18.7952C22.4832 18.8002 22.5056 18.8063 22.5265 18.8136L22.6255 18.4855C22.5986 18.4767 22.5714 18.4693 22.5433 18.4645C22.5023 18.4574 22.4561 18.4539 22.4047 18.4539H22.4045ZM19.3815 19.7534C19.3276 19.7742 19.2744 19.7845 19.2221 19.7845C19.1879 19.7845 19.1561 19.779 19.1267 19.768C19.0974 19.7572 19.0718 19.74 19.0498 19.7164C19.0279 19.6929 19.0106 19.6626 18.9977 19.6253C18.9848 19.5882 18.9784 19.5432 18.9784 19.4908V18.8065H19.5163V18.4948H18.9784V18.019H18.6421V18.4948H18.3361V18.8065H18.6421V19.4973C18.6421 19.7063 18.6903 19.8601 18.7869 19.9592C18.8837 20.0582 19.019 20.1077 19.1931 20.1077C19.2904 20.1077 19.3775 20.0924 19.455 20.0618C19.5062 20.0415 19.5536 20.0183 19.5981 19.9928L19.4836 19.7057C19.4513 19.7234 19.4173 19.7394 19.3814 19.7533L19.3815 19.7534ZM25.5166 19.481C25.4942 19.5423 25.4627 19.5954 25.4221 19.6401C25.3815 19.685 25.3329 19.7202 25.2763 19.7459C25.2197 19.7716 25.1567 19.7845 25.0872 19.7845C25.0146 19.7845 24.9498 19.7711 24.8926 19.7443C24.8354 19.7175 24.7871 19.6814 24.7477 19.636C24.7081 19.5906 24.6777 19.5373 24.6564 19.4761C24.635 19.4148 24.6244 19.3499 24.6244 19.2809C24.6244 19.212 24.6351 19.1469 24.6564 19.0856C24.6778 19.0244 24.7082 18.9711 24.7477 18.9257C24.7871 18.8803 24.8354 18.8442 24.8926 18.8174C24.9498 18.7905 25.0146 18.7771 25.0872 18.7771C25.1567 18.7771 25.2199 18.79 25.2763 18.8157C25.3329 18.8414 25.3815 18.8767 25.4221 18.9216C25.4627 18.9665 25.4942 19.0194 25.5166 19.0808C25.539 19.142 25.5503 19.2085 25.5503 19.2809C25.5503 19.3532 25.539 19.4199 25.5166 19.4811V19.481ZM25.5293 18.6853C25.4759 18.6154 25.4098 18.5591 25.3307 18.5172C25.2518 18.475 25.1571 18.4539 25.0471 18.4539C24.9393 18.4539 24.8388 18.4743 24.7459 18.5154C24.653 18.5564 24.5718 18.6136 24.5025 18.6868C24.433 18.76 24.3784 18.8472 24.3389 18.9485C24.2993 19.0496 24.2797 19.1603 24.2797 19.2807C24.2797 19.4011 24.2993 19.5118 24.3389 19.613C24.3784 19.7142 24.433 19.8015 24.5025 19.8748C24.5718 19.948 24.653 20.0051 24.7459 20.0462C24.8388 20.0873 24.9393 20.1077 25.0471 20.1077C25.1571 20.1077 25.2518 20.0869 25.3307 20.0453C25.4098 20.0039 25.4759 19.948 25.5293 19.8781V20.0667H25.8642V18.495H25.5293V18.6853ZM20.1443 19.1463C20.1529 19.0896 20.1678 19.0371 20.1892 18.9897C20.2107 18.9421 20.2382 18.9012 20.2717 18.8666C20.3054 18.8322 20.3454 18.8057 20.3918 18.787C20.4384 18.7684 20.4915 18.7591 20.5512 18.7591C20.658 18.7591 20.7451 18.793 20.8124 18.8609C20.8798 18.9287 20.9223 19.0239 20.9405 19.1463H20.1443ZM21.0807 18.6828C21.0171 18.6101 20.9408 18.5538 20.8517 18.5139C20.7624 18.4739 20.6646 18.4539 20.5578 18.4539C20.4445 18.4539 20.3412 18.4738 20.2476 18.5139C20.1541 18.5538 20.0738 18.61 20.0065 18.6828C19.9392 18.7555 19.887 18.8428 19.8495 18.9445C19.8122 19.0463 19.7935 19.1584 19.7935 19.2809C19.7935 19.4056 19.8128 19.5187 19.8511 19.6205C19.8896 19.7223 19.9434 19.8091 20.0129 19.8813C20.0824 19.9535 20.1652 20.0093 20.2613 20.0486C20.3573 20.088 20.4632 20.1078 20.5785 20.1078C20.6949 20.1078 20.8058 20.0914 20.911 20.0586C21.0162 20.0258 21.1157 19.9683 21.2099 19.8863L21.0434 19.6418C20.9792 19.6942 20.9084 19.735 20.8309 19.764C20.7535 19.793 20.6763 19.8075 20.5994 19.8075C20.5449 19.8075 20.4926 19.7999 20.4424 19.7845C20.3922 19.7692 20.3468 19.7455 20.3062 19.7132C20.2656 19.6809 20.2308 19.6396 20.2019 19.5892C20.1732 19.539 20.1534 19.4783 20.1427 19.4071H21.277C21.2791 19.3875 21.2807 19.3667 21.2819 19.3448C21.2829 19.3229 21.2835 19.301 21.2835 19.2791C21.2835 19.1566 21.2655 19.0448 21.2298 18.9435C21.1942 18.8424 21.1445 18.7554 21.0809 18.6826L21.0807 18.6828ZM17.9457 19.2784C17.8516 19.2036 17.7208 19.1536 17.5532 19.1285L17.3945 19.1037C17.3592 19.0982 17.326 19.092 17.2952 19.0848C17.2643 19.0777 17.2375 19.0681 17.2151 19.0561C17.1928 19.0441 17.1747 19.0287 17.1614 19.0102C17.1481 18.9916 17.1415 18.9686 17.1415 18.9412C17.1415 18.8854 17.1669 18.8402 17.2176 18.8058C17.2683 18.7713 17.3396 18.7543 17.4314 18.7543C17.4795 18.7543 17.5268 18.7585 17.5732 18.7674C17.6197 18.7762 17.6636 18.787 17.7054 18.8C17.7469 18.8132 17.7849 18.8277 17.8192 18.8437C17.8533 18.8595 17.8822 18.8747 17.9057 18.8887L18.0498 18.6214C17.9697 18.5688 17.8763 18.5281 17.7695 18.4991C17.6628 18.4701 17.5489 18.4556 17.4282 18.4556C17.3299 18.4556 17.2419 18.4674 17.1638 18.4909C17.0859 18.5144 17.0194 18.5478 16.9644 18.5909C16.9094 18.6342 16.8671 18.6869 16.8378 18.7493C16.8082 18.8118 16.7938 18.8817 16.7938 18.9593C16.7938 19.0862 16.8378 19.1888 16.9258 19.2671C17.014 19.3453 17.1436 19.3964 17.3143 19.4204L17.4746 19.4418C17.5665 19.4548 17.6338 19.476 17.6766 19.5049C17.7193 19.5339 17.7406 19.5707 17.7406 19.6158C17.7406 19.6747 17.7112 19.7215 17.6524 19.7559C17.5937 19.7904 17.5067 19.8076 17.3913 19.8076C17.3283 19.8076 17.272 19.8032 17.2223 19.7944C17.1727 19.7856 17.1272 19.774 17.0862 19.7592C17.045 19.7445 17.0081 19.7276 16.9755 19.7085C16.943 19.6894 16.9127 19.6688 16.8851 19.647L16.7297 19.9045C16.7852 19.9471 16.8435 19.9817 16.9043 20.0079C16.9653 20.0341 17.0249 20.0546 17.0837 20.0693C17.1425 20.0842 17.198 20.0939 17.2503 20.0987C17.3026 20.1037 17.3486 20.1063 17.3881 20.1063C17.498 20.1063 17.5966 20.0938 17.6837 20.0685C17.7709 20.0433 17.844 20.0081 17.9032 19.9625C17.9626 19.9171 18.0078 19.8631 18.0395 19.8002C18.0711 19.7373 18.0867 19.6682 18.0867 19.5927C18.0867 19.4581 18.0398 19.3534 17.9458 19.2784H17.9457ZM16.0588 19.4811C16.0364 19.5424 16.0049 19.5955 15.9643 19.6403C15.9237 19.6851 15.8751 19.7203 15.8186 19.746C15.7619 19.7717 15.6989 19.7846 15.6296 19.7846C15.557 19.7846 15.492 19.7712 15.4349 19.7445C15.3778 19.7177 15.3294 19.6816 15.29 19.6362C15.2504 19.5908 15.22 19.5375 15.1987 19.4762C15.1773 19.4149 15.1667 19.35 15.1667 19.281C15.1667 19.2121 15.1774 19.1471 15.1987 19.0857C15.2201 19.0245 15.2505 18.9712 15.29 18.9258C15.3294 18.8804 15.3779 18.8443 15.4349 18.8175C15.4921 18.7906 15.557 18.7772 15.6296 18.7772C15.6989 18.7772 15.7619 18.7901 15.8186 18.8159C15.8751 18.8415 15.9237 18.8768 15.9643 18.9217C16.0049 18.9666 16.0364 19.0195 16.0588 19.0809C16.0812 19.1421 16.0924 19.2087 16.0924 19.281C16.0924 19.3533 16.0812 19.42 16.0588 19.4812V19.4811ZM16.0716 18.6854C16.0182 18.6155 15.952 18.5593 15.8729 18.5173C15.7938 18.4751 15.6993 18.454 15.5893 18.454C15.4815 18.454 15.3811 18.4744 15.2881 18.5155C15.1952 18.5566 15.114 18.6137 15.0446 18.6869C14.9752 18.7601 14.9207 18.8474 14.8811 18.9486C14.8417 19.0498 14.8219 19.1605 14.8219 19.2809C14.8219 19.4013 14.8417 19.512 14.8811 19.6131C14.9207 19.7144 14.9752 19.8016 15.0446 19.8749C15.114 19.9481 15.1952 20.0053 15.2881 20.0463C15.3811 20.0874 15.4815 20.1078 15.5893 20.1078C15.6993 20.1078 15.7939 20.087 15.8729 20.0454C15.952 20.004 16.0182 19.9481 16.0716 19.8782V20.0669H16.4065V18.4951H16.0716V18.6854Z" fill="#141515"/>
<path fill-rule="evenodd" clip-rule="evenodd" d="M18.3126 11.1468C18.3126 9.26359 19.1716 7.58712 20.5091 6.50191C19.5228 5.70174 18.277 5.22272 16.9211 5.22272C13.7266 5.22272 11.1367 7.87509 11.1367 11.1467C11.1367 14.4184 13.7264 17.0706 16.9211 17.0706C18.277 17.0706 19.5228 16.5917 20.5091 15.7915C19.1716 14.7065 18.3126 13.0299 18.3126 11.1467V11.1468Z" fill="#DE2C1D"/>
<path fill-rule="evenodd" clip-rule="evenodd" d="M18.3145 11.1478C18.3145 13.0311 19.1735 14.7076 20.5109 15.7927C21.8484 14.7076 22.7072 13.031 22.7072 11.1478C22.7072 9.26461 21.8482 7.58814 20.5109 6.50293C19.1735 7.58801 18.3145 9.26461 18.3145 11.1478Z" fill="#ED6100"/>
<path fill-rule="evenodd" clip-rule="evenodd" d="M24.0976 5.22272C22.7417 5.22272 21.4959 5.70174 20.5098 6.50191C21.8472 7.58699 22.7061 9.26359 22.7061 11.1468C22.7061 13.0301 21.8471 14.7066 20.5098 15.7917C21.4959 16.5918 22.7417 17.0707 24.0976 17.0707C27.2922 17.0707 29.8819 14.4185 29.8819 11.1468C29.8819 7.87509 27.2922 5.22284 24.0976 5.22284V5.22272ZM30.2885 14.566V14.3145L30.2088 14.5316H30.1209L30.0412 14.3151V14.566H29.9582V14.2035H30.077L30.1651 14.4356L30.2522 14.2035H30.3713V14.566H30.2882H30.2885ZM29.6939 14.566V14.2816H29.5814V14.2035H29.889V14.2816H29.7767V14.566H29.6937H29.6939Z" fill="#F79F06"/>
<path d="M3.90588 0H37.6037C38.6785 0 39.6552 0.449949 40.3628 1.17461C41.0705 1.8994 41.5098 2.89967 41.5098 4.00031V21.3804C41.5098 22.4809 41.0704 23.4811 40.3628 24.2059C39.6551 24.9306 38.6784 25.3807 37.6038 25.3807H3.90601C2.83144 25.3807 1.85463 24.9307 1.14692 24.2059C0.439342 23.4813 0 22.4811 0 21.3804V4.00031C0 2.89954 0.439342 1.89927 1.14692 1.17461C1.8545 0.449949 2.83131 0 3.90613 0H3.90588ZM37.6037 1.3788H3.90588C3.20266 1.3788 2.56283 1.67404 2.09858 2.1495C1.63433 2.62496 1.34605 3.28024 1.34605 4.00044V21.3805C1.34605 22.1006 1.63433 22.7558 2.09858 23.2313C2.56295 23.7069 3.20279 24.0021 3.90588 24.0021H37.6037C38.3067 24.0021 38.9465 23.7069 39.4109 23.2313C39.8751 22.7557 40.1635 22.1004 40.1635 21.3806V4.00057C40.1635 3.28062 39.8753 2.62521 39.411 2.14963C38.9468 1.67417 38.3068 1.37893 37.6037 1.37893V1.3788Z" fill="#808080"/>
</g>
<defs>
<clipPath id="clip0_19657_14211">
<rect width="41.51" height="25.3807" fill="white"/>
</clipPath>
</defs>
</svg>
