<svg width="26" height="26" viewBox="0 0 26 26" fill="none" xmlns="http://www.w3.org/2000/svg">
<g clip-path="url(#clip0_19657_14227)">
<path d="M25.6099 16.1449C23.8735 23.1092 16.8199 27.3475 9.85483 25.6108C2.8926 23.8745 -1.34577 16.8205 0.391316 9.8566C2.12679 2.89151 9.18044 -1.34727 16.1435 0.389014C23.1082 2.12533 27.3461 9.18019 25.6099 16.1449Z" fill="#F7931A"/>
<path d="M8.72462 15.1894C8.65393 15.3649 8.47479 15.6282 8.07096 15.5282C8.08521 15.549 7.03424 15.2694 7.03424 15.2694L6.32617 16.9021L8.18228 17.3649C8.52759 17.4514 8.86601 17.542 9.19913 17.6273L8.60883 19.9974L10.0335 20.3528L10.6181 18.008C11.0073 18.1136 11.3851 18.2111 11.7548 18.3029L11.1722 20.6368L12.5986 20.9922L13.1889 18.6267C15.6211 19.0869 17.45 18.9013 18.2198 16.7015C18.8401 14.9303 18.1889 13.9085 16.9093 13.2423C17.8412 13.0274 18.5432 12.4143 18.7304 11.1481C18.9892 9.41827 17.6722 8.48838 15.8713 7.86803L16.4555 5.52478L15.0291 5.16932L14.4604 7.45079C14.0854 7.35735 13.7003 7.26919 13.3176 7.18184L13.8904 4.88531L12.4649 4.52985L11.8803 6.87226C11.5699 6.80158 11.2653 6.73167 10.9695 6.65816L10.9711 6.65083L9.00406 6.15968L8.6246 7.68311C8.6246 7.68311 9.68289 7.92564 9.66054 7.94067C10.2382 8.08489 10.3426 8.46714 10.3252 8.77024L8.72462 15.1894ZM15.4715 15.7179C15.0308 17.4891 12.0485 16.5316 11.0816 16.2915L11.8649 13.1517C12.8317 13.393 15.9322 13.8707 15.4715 15.7179ZM15.9127 11.1225C15.5105 12.7337 13.0284 11.9151 12.2232 11.7144L12.9333 8.86659C13.7385 9.06728 16.3316 9.44184 15.9127 11.1225Z" fill="white"/>
</g>
<defs>
<clipPath id="clip0_19657_14227">
<rect width="26" height="26" fill="white"/>
</clipPath>
</defs>
</svg>
