<svg width="46" height="44" viewBox="0 0 46 44" fill="none" xmlns="http://www.w3.org/2000/svg">
<path d="M43.035 17.5659C42.4413 17.1532 41.9195 16.6463 41.4902 16.0654C41.4911 15.3228 41.6119 14.5852 41.8477 13.8808C42.2714 12.2307 42.8 10.1858 41.6159 8.57311C40.4319 6.96045 38.3177 6.83175 36.6151 6.71735C35.8729 6.718 35.1352 6.60218 34.4291 6.37414C33.9828 5.76443 33.6358 5.08842 33.4007 4.37097C32.7298 2.71322 31.9662 0.833257 30.1002 0.233738C28.2343 -0.365781 26.5493 0.700154 25.0574 1.64178C24.4347 2.10311 23.7371 2.45436 22.995 2.68022C22.264 2.44645 21.5788 2.08924 20.9691 1.62418C19.5346 0.693554 17.7392 -0.458184 15.8479 0.182037C13.9864 0.813457 13.2305 2.68132 12.5596 4.32587C12.3255 5.04093 11.9791 5.71445 11.5334 6.32134C10.8162 6.55586 10.0658 6.67361 9.31101 6.67005C7.51457 6.79105 5.47869 6.92745 4.3344 8.5401C3.21107 10.1264 3.71425 12.0822 4.15895 13.8082C4.39118 14.5126 4.51435 15.2481 4.52419 15.9895C4.09349 16.5598 3.57815 17.0613 2.9959 17.4768C1.66292 18.5757 0 19.942 0 21.9891C0 24.0363 1.63092 25.3739 2.94072 26.4575C3.53724 26.8799 4.05928 27.3981 4.48557 27.9909C4.48366 28.7251 4.36179 29.4541 4.12474 30.1492C3.69108 31.8114 3.14928 33.8805 4.37964 35.5064C5.5791 37.0871 7.69002 37.2268 9.38604 37.3412C10.1283 37.3397 10.8661 37.4556 11.572 37.6844C12.0163 38.2941 12.3622 38.9692 12.5971 39.6854C13.2702 41.3432 14.0316 43.2231 15.8987 43.8237C16.2547 43.9408 16.6272 44.0002 17.0021 43.9997C18.4361 43.8456 19.7993 43.2984 20.9404 42.419C21.5618 41.9574 22.2583 41.6061 22.9994 41.3806C23.7275 41.604 24.4111 41.9516 25.0199 42.408C26.4456 43.3122 28.2199 44.4453 30.1124 43.8006C31.9717 43.1692 32.7276 41.3036 33.3985 39.6546C33.633 38.9397 33.9793 38.2663 34.4247 37.6591C35.1386 37.425 35.8856 37.3073 36.6371 37.3104C38.4203 37.1894 40.443 37.0541 41.6027 35.4646C42.7624 33.875 42.2648 31.8906 41.8234 30.1492C41.5954 29.4527 41.4749 28.7257 41.4659 27.9931C41.8962 27.4233 42.4108 26.9219 42.992 26.5059C44.3305 25.4059 45.9934 24.0385 45.9934 21.9957C46 19.9618 44.3592 18.6351 43.035 17.5659ZM40.582 23.5853C39.3926 24.3807 38.4519 25.4939 37.8675 26.7974C37.5479 28.2245 37.644 29.713 38.1445 31.0875C38.3493 31.7749 38.4944 32.4786 38.5781 33.1908C37.8702 33.4221 37.1294 33.538 36.3844 33.534C34.9098 33.4935 33.4531 33.865 32.1791 34.6065C31.0883 35.5806 30.29 36.8372 29.8729 38.2367C29.6327 38.9196 29.3263 39.5776 28.9581 40.2013C28.2791 39.9716 27.6402 39.6375 27.0646 39.2113C25.8893 38.3002 24.4798 37.7386 22.9983 37.5909C21.5084 37.7407 20.0905 38.304 18.9056 39.2168C18.3377 39.601 17.7445 39.9468 17.1301 40.2519C16.6915 39.6483 16.3497 38.9803 16.1172 38.2719C15.7008 36.8596 14.8939 35.5928 13.7889 34.6164C12.5293 33.8864 11.0895 33.5232 9.63322 33.5681C8.89207 33.5584 8.15466 33.4617 7.43623 33.2799C7.43664 32.5438 7.55854 31.8128 7.79706 31.1161C8.297 29.7451 8.40099 28.2618 8.0972 26.8348C7.51391 25.5078 6.56884 24.3705 5.36944 23.5523C4.77442 23.1201 4.24453 22.6052 3.79591 22.0232C3.88198 21.6668 4.87951 20.8462 5.41579 20.4084C6.60496 19.6118 7.54558 18.498 8.1303 17.1941C8.45083 15.7568 8.35126 14.258 7.8434 12.8753C7.6452 12.1913 7.49477 11.4944 7.39319 10.7897C8.09865 10.5685 8.83412 10.4572 9.57363 10.4597C11.0518 10.5064 12.513 10.1345 13.7878 9.38713C14.8788 8.41326 15.6772 7.15656 16.094 5.75702C16.3345 5.07427 16.6354 4.41421 16.9933 3.78465C17.6795 4.02269 18.3246 4.36519 18.9056 4.79998C20.0834 5.7337 21.5048 6.31163 23.0017 6.46544C24.4905 6.31581 25.9076 5.75334 27.0922 4.84179C27.6597 4.45683 28.2529 4.11098 28.8677 3.80665C29.3056 4.41072 29.6473 5.07862 29.8806 5.78672C30.2975 7.19813 31.1043 8.46412 32.2089 9.43993C33.4692 10.1713 34.9103 10.5349 36.3679 10.4894C37.0951 10.503 37.8189 10.5926 38.5274 10.7567C38.5263 11.495 38.4056 12.2282 38.1698 12.9281C37.6746 14.3054 37.5745 15.793 37.8807 17.2238C38.4681 18.5577 39.428 19.6949 40.646 20.4997C41.2318 20.9167 41.7524 21.4179 42.1909 21.9869C41.7396 22.5985 41.1971 23.1376 40.582 23.5853Z" fill="#1E2358"/>
<path d="M31.4966 14.8493C31.3055 14.6894 31.0845 14.5686 30.8465 14.4939C30.6085 14.4192 30.358 14.392 30.1094 14.414C29.8608 14.4359 29.619 14.5066 29.3979 14.6219C29.1767 14.7372 28.9806 14.8948 28.8207 15.0858L20.345 25.1886L16.7389 21.5958C16.3824 21.2405 15.899 21.0408 15.3949 21.0408C14.8908 21.0408 14.4073 21.2405 14.0509 21.5958C13.6944 21.9512 13.4941 22.4331 13.4941 22.9357C13.4941 23.4382 13.6944 23.9202 14.0509 24.2755L19.1268 29.3357C19.3033 29.5113 19.5129 29.6503 19.7436 29.7447C19.9743 29.8391 20.2214 29.887 20.4708 29.8857C20.498 29.8876 20.5253 29.8876 20.5524 29.8857C20.8161 29.8745 21.0745 29.8086 21.311 29.6921C21.5476 29.5756 21.7571 29.4111 21.9263 29.2092L31.7349 17.5169C31.8951 17.3262 32.0159 17.1059 32.0906 16.8686C32.1653 16.6313 32.1923 16.3816 32.1702 16.1339C32.1481 15.8861 32.0772 15.6452 31.9616 15.4248C31.846 15.2044 31.688 15.0088 31.4966 14.8493Z" fill="#1E2358"/>
</svg>
