<svg width="17" height="17" viewBox="0 0 17 17" fill="none" xmlns="http://www.w3.org/2000/svg">
<path fill-rule="evenodd" clip-rule="evenodd" d="M0.062511 13.805L0.678461 11.0332C0.818733 10.402 1.1361 9.82381 1.59333 9.36658L9.96407 0.995839C11.2919 -0.331944 13.4446 -0.331947 14.7724 0.995835L15.9141 2.13751C17.2419 3.46529 17.2419 5.61805 15.9141 6.94584L7.54333 15.3166C7.0861 15.7738 6.50796 16.0912 5.87673 16.2315L3.10496 16.8474C1.28299 17.2523 -0.342372 15.6269 0.062511 13.805ZM2.33798 11.402L1.72203 14.1737C1.58707 14.7811 2.12886 15.3228 2.73618 15.1879L5.50795 14.5719C5.81149 14.5045 6.09047 14.3551 6.31474 14.1404L2.76948 10.5952C2.55478 10.8194 2.40543 11.0984 2.33798 11.402ZM3.97127 9.3928L7.51711 12.9386L12.265 8.19072L8.71919 4.64488L3.97127 9.3928ZM14.712 5.74376L13.4671 6.98864L9.92127 3.4428L11.1662 2.19792C11.83 1.53403 12.9064 1.53403 13.5703 2.19792L14.712 3.33959C15.3759 4.00348 15.3759 5.07986 14.712 5.74376Z" fill="#1E2358"/>
</svg>
