<svg width="12" height="12" viewBox="0 0 12 12" fill="none" xmlns="http://www.w3.org/2000/svg">
<path fill-rule="evenodd" clip-rule="evenodd" d="M8.656 0.9653C7.9843 0.87499 7.12395 0.874995 6.0286 0.875H5.9714C4.87606 0.874995 4.01572 0.87499 3.34401 0.9653C2.65569 1.05784 2.10956 1.25136 1.68046 1.68046C1.25136 2.10956 1.05784 2.65569 0.965295 3.34402C0.87499 4.01572 0.874995 4.87606 0.875 5.97143V6.02858C0.874995 7.12393 0.87499 7.98428 0.965295 8.65598C1.05784 9.34433 1.25136 9.89043 1.68046 10.3195C2.10956 10.7486 2.65569 10.9422 3.34401 11.0347C4.01572 11.125 4.87605 11.125 5.9714 11.125H6.0286C7.12395 11.125 7.9843 11.125 8.656 11.0347C9.3443 10.9422 9.89045 10.7486 10.3195 10.3195C10.7486 9.89043 10.9422 9.34433 11.0347 8.65598C11.125 7.98428 11.125 7.12393 11.125 6.02858V5.97143C11.125 4.87611 11.125 4.01572 11.0347 3.34402C10.9422 2.65569 10.7486 2.10956 10.3195 1.68046C9.89045 1.25136 9.3443 1.05784 8.656 0.9653ZM6.5 3.5C6.5 3.22386 6.27615 3 6 3C5.72385 3 5.5 3.22386 5.5 3.5V4.85402C5.0585 5.04688 4.75 5.48743 4.75 5.99998C4.75 6.69038 5.30965 7.24998 6 7.24998C6.1612 7.24998 6.3153 7.21948 6.4568 7.16393L7.14645 7.85358C7.3417 8.04883 7.6583 8.04883 7.85355 7.85358C8.0488 7.65828 8.0488 7.34173 7.85355 7.14643L7.1639 6.45678C7.2195 6.31528 7.25 6.16123 7.25 5.99998C7.25 5.48743 6.9415 5.04688 6.5 4.85402V3.5Z" fill="#5B616E"/>
</svg>
