<svg width="36" height="26" viewBox="0 0 36 26" fill="none" xmlns="http://www.w3.org/2000/svg">
<path d="M35.4353 23.6088C35.4353 24.8313 34.4976 25.8223 33.3407 25.8223H2.09463C0.937791 25.8224 0 24.8313 0 23.6088V2.21344C0 0.991056 0.937791 6.10352e-05 2.09463 6.10352e-05H33.3407C34.4976 6.10352e-05 35.4353 0.991056 35.4353 2.21344V23.6088Z" fill="#306FC5"/>
<path opacity="0.15" d="M1.48918 23.6089V2.21344C1.48918 0.991056 2.42711 6.10352e-05 3.58395 6.10352e-05H2.09456C0.937791 6.10352e-05 0 0.990983 0 2.21344V23.6089C0 24.8314 0.937791 25.8224 2.09463 25.8224H3.58402C2.42718 25.8224 1.48918 24.8313 1.48918 23.6089Z" fill="#202121"/>
<path d="M5.16211 10.3327H6.22088L5.69163 8.90887L5.16211 10.3327Z" fill="white"/>
<path d="M10.793 15.1119V15.7731H12.5737V16.4852H10.793V17.2482H12.7661L13.6804 16.18L12.8142 15.1119H10.793Z" fill="white"/>
<path d="M24.7006 8.90887L24.123 10.3327H25.2301L24.7006 8.90887Z" fill="white"/>
<path d="M15.9388 17.654V14.7556L14.6875 16.1795L15.9388 17.654Z" fill="white"/>
<path d="M18.2999 15.5698C18.2517 15.2647 18.059 15.1119 17.7702 15.1119H16.7598V16.0272H17.8186C18.1073 16.0273 18.2999 15.8748 18.2999 15.5698Z" fill="white"/>
<path d="M21.6678 15.9254C21.764 15.8744 21.8123 15.7217 21.8123 15.5694C21.8605 15.3662 21.764 15.2643 21.6678 15.2134C21.5718 15.1625 21.4272 15.1625 21.283 15.1625H20.3203V15.9763H21.2829C21.4271 15.9763 21.5717 15.9763 21.6678 15.9254Z" fill="white"/>
<path d="M28.5983 7.58624V8.19645L28.3097 7.58624H26.0481V8.19645L25.7592 7.58624H22.6792C22.1499 7.58624 21.7166 7.68804 21.3318 7.89142V7.58624H19.1663V7.63714V7.89142C18.9257 7.68811 18.637 7.58624 18.252 7.58624H10.5039L9.97435 8.85755L9.44511 7.58624H7.71272H6.9908V8.19645L6.75015 7.58624H6.70198H4.63268L3.67005 9.97615L2.56332 12.5695L2.54297 12.6205H2.56332H5.0177H5.04843L5.06587 12.5695L5.35475 11.8069H5.98033L6.26908 12.6205H9.06003V12.5695V12.0103L9.30081 12.6204H10.6963L10.9368 12.0103V12.5695V12.6205H12.0437H17.578H17.6262V11.2983H17.7227C17.8188 11.2983 17.8188 11.2983 17.8188 11.4509V12.5696H21.2838V12.2645C21.5725 12.4173 22.0053 12.5696 22.5829 12.5696H24.0268L24.3156 11.7562H24.9891L25.2779 12.5696H28.0689V12.0612V11.807L28.5023 12.5696H28.5983H28.6466H30.764V7.58624H28.5984H28.5983ZM12.2844 11.8579H11.8031H11.5144V11.553V9.061L11.4662 9.17764V9.17625L10.3467 11.8579H10.3113H10.0539H9.63744L8.48254 9.061V11.8579H6.84642L6.50958 11.0951H4.87319L4.53628 11.8579H3.69033L5.11397 8.29824H6.31697L7.66441 11.7052V8.29824H7.95309H8.93939L8.96209 8.34921H8.96375L9.57093 9.74557L10.007 10.7918L10.0224 10.7391L10.9848 8.29832H12.2844V11.8579H12.2844ZM15.6051 9.061H13.7282V9.72202H15.5569V10.4339H13.7282V11.146H15.6051V11.9086H12.9102V8.29832H15.6051V9.061ZM19.0376 10.3722C19.0388 10.3734 19.0404 10.3742 19.0419 10.3753C19.0601 10.3956 19.0757 10.416 19.089 10.4356C19.1812 10.5632 19.2557 10.7532 19.2595 11.0316C19.2597 11.0365 19.2599 11.0412 19.2602 11.0461C19.2602 11.0488 19.2607 11.0512 19.2607 11.0541C19.2607 11.0557 19.2606 11.057 19.2606 11.0585C19.2617 11.0865 19.2624 11.1151 19.2624 11.146V11.858H18.5406V11.451C18.5406 11.2476 18.5406 10.9424 18.3961 10.7391C18.3506 10.691 18.3046 10.6593 18.2545 10.6368C18.1823 10.5875 18.0457 10.5866 17.8188 10.5866H16.9523V11.858H16.1344V8.29832H17.9632C18.3961 8.29832 18.6849 8.29832 18.9257 8.45087C19.1615 8.60049 19.3039 8.84862 19.3093 9.24156C19.2981 9.78272 18.9694 10.0796 18.733 10.1797C18.733 10.1797 18.8936 10.2139 19.0376 10.3722ZM20.6581 11.8579H19.8399V8.29824H20.6581V11.8579ZM30.0424 11.8579H28.9835L27.4436 9.16265V11.4001L27.4385 11.3948V11.8601H26.6255V11.858H25.8073L25.5186 11.0952H23.8341L23.5453 11.9086H22.631C22.2463 11.9086 21.7647 11.8071 21.4761 11.502C21.1874 11.1969 21.0431 10.79 21.0431 10.1291C21.0431 9.62059 21.1393 9.11175 21.4761 8.70507C21.7165 8.39975 22.1499 8.29832 22.6791 8.29832H23.4493V9.061H22.6791C22.3904 9.061 22.2463 9.11168 22.0534 9.26452C21.9093 9.417 21.8129 9.72202 21.8129 10.078C21.8129 10.4849 21.8611 10.7391 22.0534 10.9424C22.1981 11.0952 22.3904 11.1461 22.631 11.1461H22.9678L24.0746 8.34936H24.5561H25.2778L26.6254 11.7563V11.5825V10.434V10.3324V8.34943H27.8284L29.2238 10.841V8.34943H30.0422V11.858H30.0424V11.8579Z" fill="white"/>
<path d="M18.3503 9.78037C18.3644 9.7645 18.3771 9.74651 18.3879 9.72589C18.4315 9.65298 18.4815 9.52164 18.4545 9.34239C18.4534 9.32594 18.4506 9.31073 18.4473 9.29603C18.4464 9.29193 18.4465 9.28835 18.4455 9.28425L18.445 9.28433C18.421 9.19723 18.3599 9.1437 18.299 9.11123C18.2025 9.06055 18.0581 9.06055 17.9138 9.06055H16.9512V9.87427H17.9138C18.0581 9.87427 18.2026 9.87427 18.299 9.8233C18.3134 9.81555 18.3263 9.80502 18.3387 9.7931L18.3388 9.79376C18.3389 9.79368 18.3438 9.78827 18.3503 9.78037Z" fill="white"/>
<path d="M32.8828 16.9439C32.8828 16.588 32.7866 16.2319 32.6423 15.9777V13.6895H32.6401V13.5368C32.6401 13.5368 30.623 13.5368 30.3228 13.5368C30.0227 13.5368 29.6585 13.8418 29.6585 13.8418V13.5368H27.4449C27.1079 13.5368 26.675 13.6386 26.4823 13.8418V13.5368H22.5362V13.6895V13.8417C22.2477 13.5877 21.7179 13.5367 21.4774 13.5367H18.8787V13.6895V13.8416C18.6381 13.5876 18.0604 13.5366 17.7715 13.5366H14.8845L14.2106 14.2994L13.5849 13.5366H13.3834H13.0556H9.25391V13.6894V14.0911V18.6728H13.4888L14.1847 17.9373L14.7878 18.6728H14.8361H17.2763H17.3869H17.4351H17.483V18.1643V17.5033H17.7238C18.0604 17.5033 18.4937 17.5033 18.8305 17.3505V18.6217V18.7236H20.9962V18.6217V17.4014H21.0921C21.2367 17.4014 21.2367 17.4014 21.2367 17.554V18.6217V18.7236H27.7814C28.2149 18.7236 28.6477 18.6217 28.8883 18.4183V18.6217V18.7236H30.9578C31.3906 18.7236 31.8241 18.6728 32.1128 18.4693C32.5559 18.1884 32.8352 17.6912 32.8767 17.0982C32.8786 17.0806 32.881 17.0631 32.8826 17.0454L32.8797 17.0426C32.8815 17.0097 32.8828 16.9771 32.8828 16.9439ZM17.7239 16.6389H16.7611V16.7911V17.0963V17.4015V17.9609H15.1794L14.2587 16.8421L14.2555 16.8458L14.2106 16.7911L13.1519 17.9609H10.072V14.4014H13.2L14.0546 15.3905L14.2343 15.5976L14.2587 15.5709L15.2694 14.4015H17.8199C18.3149 14.4015 18.8692 14.5305 19.0793 15.0627C19.1045 15.1681 19.1192 15.2852 19.1192 15.4183C19.1192 16.4353 18.4454 16.6389 17.7239 16.6389ZM22.5362 16.5879C22.6323 16.7401 22.6805 16.9439 22.6805 17.2491V17.9608H21.8625V17.5033C21.8625 17.2996 21.8625 16.9439 21.7179 16.7911C21.6219 16.6389 21.4292 16.6389 21.1407 16.6389H20.2745V17.9609H19.4564V14.3505H21.285C21.6698 14.3505 22.0066 14.3505 22.2477 14.5029C22.4881 14.6556 22.6805 14.9099 22.6805 15.3167C22.6805 15.8759 22.3438 16.181 22.1031 16.2829C22.3438 16.3842 22.4881 16.4862 22.5362 16.5879ZM25.8569 15.113H23.9798V15.7741H25.8086V16.4861H23.9798V17.1981H25.8569V17.9608H23.1619V14.3504H25.8569V15.113ZM27.8779 17.9609H26.3379V17.1982H27.8779C28.022 17.1982 28.1185 17.1982 28.215 17.0964C28.2632 17.0454 28.311 16.9439 28.311 16.8421C28.311 16.7402 28.2632 16.639 28.215 16.588C28.1667 16.5372 28.0703 16.4863 27.926 16.4863C27.156 16.4354 26.2416 16.4863 26.2416 15.3677C26.2416 14.8591 26.5304 14.2997 27.3967 14.2997H28.9847V15.164H27.4929C27.3486 15.164 27.2522 15.164 27.1559 15.2149C27.0599 15.2659 27.0599 15.3677 27.0599 15.4692C27.0599 15.6219 27.1559 15.6728 27.2522 15.7232C27.3486 15.7742 27.4448 15.7742 27.5409 15.7742H27.9741C28.4073 15.7742 28.6959 15.8759 28.8884 16.0794C29.0328 16.232 29.1291 16.4863 29.1291 16.8421C29.1291 17.6047 28.696 17.9609 27.8779 17.9609ZM32.0166 17.6047C31.8244 17.8083 31.4873 17.9609 31.0059 17.9609H29.4662V17.1982H31.0058C31.1502 17.1982 31.2467 17.1982 31.3429 17.0964C31.3908 17.0454 31.4391 16.9439 31.4391 16.8421C31.4391 16.7402 31.3908 16.639 31.3429 16.588C31.2947 16.5372 31.1986 16.4863 31.0541 16.4863C30.2844 16.4354 29.3698 16.4863 29.3698 15.3677C29.3698 14.8844 29.6314 14.4478 30.2768 14.3182C30.354 14.3069 30.4355 14.2997 30.5248 14.2997H32.113V15.164H31.0541H30.6692H30.6211C30.4766 15.164 30.3805 15.164 30.2844 15.2149C30.2359 15.2659 30.1878 15.3677 30.1878 15.4692C30.1878 15.6219 30.2359 15.6728 30.3805 15.7232C30.4766 15.7742 30.5729 15.7742 30.6692 15.7742H30.7171H31.1022C31.3125 15.7742 31.4716 15.8016 31.6171 15.8557C31.7504 15.9066 32.1917 16.1152 32.2904 16.6597C32.299 16.7167 32.3053 16.7762 32.3053 16.8421C32.3053 17.1473 32.209 17.4015 32.0166 17.6047Z" fill="white"/>
</svg>
