<svg width="13" height="13" viewBox="0 0 13 13" fill="none" xmlns="http://www.w3.org/2000/svg">
<path fill-rule="evenodd" clip-rule="evenodd" d="M2.4388 5.95898V3.52726C3.67417 2.65612 4.92046 2.16732 6.5013 2.16732C8.08216 2.16732 9.32842 2.65612 10.5638 3.52726V5.95898H9.88672V5.14648C9.88672 4.77254 9.5836 4.4694 9.20964 4.4694H7.3138C6.93984 4.4694 6.63672 4.77254 6.63672 5.14648V5.95898H6.36589V5.14648C6.36589 4.77254 6.06277 4.4694 5.6888 4.4694H3.79297C3.41902 4.4694 3.11589 4.77254 3.11589 5.14648V5.95898H2.4388ZM1.35547 6.17635V3.52329C1.35547 3.18272 1.51622 2.85265 1.80547 2.64827C3.18971 1.67022 4.65203 1.08398 6.5013 1.08398C8.35055 1.08398 9.81289 1.67022 11.1971 2.64827C11.4864 2.85265 11.6471 3.18272 11.6471 3.52329V6.17635C12.1328 6.45737 12.4596 6.98252 12.4596 7.58398V9.47982V11.3757C12.4596 11.6748 12.2171 11.9173 11.918 11.9173C11.6188 11.9173 11.3763 11.6748 11.3763 11.3757V10.0215H1.6263V11.3757C1.6263 11.6748 1.38379 11.9173 1.08464 11.9173C0.785484 11.9173 0.542969 11.6748 0.542969 11.3757V9.47982V7.58398C0.542969 6.98252 0.869756 6.45737 1.35547 6.17635Z" fill="#6B7280"/>
</svg>
