<svg width="16" height="18" viewBox="0 0 16 18" fill="none" xmlns="http://www.w3.org/2000/svg">
<path d="M8.5 1C6.77609 1 5.12279 1.61801 3.90381 2.71807C2.68482 3.81812 2 5.31012 2 6.86584C2 9.96407 7.79091 16.5178 8.03909 16.8004C8.09446 16.8627 8.16462 16.913 8.24439 16.9475C8.32417 16.9821 8.41152 17 8.5 17C8.58848 17 8.67583 16.9821 8.7556 16.9475C8.83538 16.913 8.90554 16.8627 8.96091 16.8004C9.20909 16.5178 15 9.96407 15 6.86584C15 5.31012 14.3152 3.81812 13.0962 2.71807C11.8772 1.61801 10.2239 1 8.5 1ZM8.5 8.46562C8.03252 8.46562 7.57553 8.34052 7.18683 8.10614C6.79814 7.87175 6.49518 7.53862 6.31628 7.14886C6.13739 6.7591 6.09058 6.33022 6.18178 5.91645C6.27298 5.50268 6.4981 5.12261 6.82866 4.8243C7.15922 4.52599 7.58038 4.32284 8.03888 4.24054C8.49738 4.15823 8.97263 4.20047 9.40452 4.36192C9.83642 4.52336 10.2056 4.79676 10.4653 5.14753C10.725 5.49831 10.8636 5.91071 10.8636 6.33258C10.8636 6.8983 10.6146 7.44084 10.1713 7.84087C9.72807 8.24089 9.12687 8.46562 8.5 8.46562Z" fill="white"/>
</svg>
