<svg width="40" height="40" viewBox="0 0 40 40" fill="none" xmlns="http://www.w3.org/2000/svg">
<path d="M0 20C0 8.95431 8.95431 0 20 0C31.0457 0 40 8.95431 40 20C40 31.0457 31.0457 40 20 40C8.95431 40 0 31.0457 0 20Z" fill="#1E2358" fill-opacity="0.4"/>
<path d="M19.9902 16.9869V11.3164" stroke="white" stroke-linecap="round" stroke-linejoin="round"/>
<path d="M19.9902 28.6705V23" stroke="white" stroke-linecap="round" stroke-linejoin="round"/>
<path d="M28.6703 20.0011L23 19.9492" stroke="white" stroke-linecap="round" stroke-linejoin="round"/>
<path d="M17.0004 20.0011L11.3301 19.9492" stroke="white" stroke-linecap="round" stroke-linejoin="round"/>
<path d="M22.9999 14C22.9999 14 20.7904 11 19.9999 11C19.2093 11 17 14 17 14" stroke="white" stroke-linecap="round" stroke-linejoin="round"/>
<path d="M14 23C14 23 11 20.7905 11 20C11 19.2094 14 17 14 17" stroke="white" stroke-linecap="round" stroke-linejoin="round"/>
<path d="M26 17C26 17 29 19.2095 29 20C29 20.7906 26 23 26 23" stroke="white" stroke-linecap="round" stroke-linejoin="round"/>
<path d="M17 26C17 26 19.2094 29 19.9999 29C20.7905 29 22.9999 26 22.9999 26" stroke="white" stroke-linecap="round" stroke-linejoin="round"/>
</svg>
