<svg width="12" height="12" viewBox="0 0 12 12" fill="none" xmlns="http://www.w3.org/2000/svg">
<path d="M3.70171 7.21995C2.22304 7.57855 1.125 8.91105 1.125 10.5C1.125 10.7071 1.2929 10.875 1.5 10.875H7.5C7.7071 10.875 7.875 10.7071 7.875 10.5C7.875 8.91105 6.77695 7.57855 5.2983 7.21995C6.0763 6.9044 6.625 6.14125 6.625 5.25C6.625 4.0764 5.6736 3.125 4.5 3.125C3.3264 3.125 2.375 4.0764 2.375 5.25C2.375 6.14125 2.92369 6.9044 3.70171 7.21995Z" fill="#5B616E"/>
<path d="M5.49219 2.55097C6.59084 2.95518 7.37449 4.01107 7.37449 5.25C7.37449 5.92785 7.13999 6.5504 6.74814 7.04145C7.42779 7.48415 7.96894 8.12165 8.29214 8.875H10.4995C10.7066 8.875 10.8745 8.7071 10.8745 8.5C10.8745 6.91105 9.77649 5.57855 8.29779 5.21995C9.07579 4.90438 9.62449 4.14126 9.62449 3.25C9.62449 2.0764 8.67314 1.125 7.49949 1.125C6.57079 1.125 5.78124 1.72077 5.49219 2.55097Z" fill="#5B616E"/>
</svg>
