<svg width="11" height="10" viewBox="0 0 11 10" fill="none" xmlns="http://www.w3.org/2000/svg">
<g clip-path="url(#clip0_8431_33155)">
<path d="M5.49925 7.50073C5.3006 7.50073 5.10641 7.57403 4.94125 7.71136C4.77608 7.84869 4.64734 8.04389 4.57133 8.27226C4.49531 8.50064 4.47542 8.75194 4.51417 8.99438C4.55292 9.23682 4.64858 9.45951 4.78905 9.6343C4.92951 9.80909 5.10848 9.92811 5.30331 9.97634C5.49814 10.0246 5.70009 9.99981 5.88361 9.90522C6.06714 9.81062 6.224 9.65043 6.33436 9.4449C6.44472 9.23937 6.50363 8.99773 6.50363 8.75054C6.50347 8.41913 6.3976 8.10135 6.20928 7.867C6.02096 7.63266 5.76558 7.50093 5.49925 7.50073ZM10.8815 3.13045C10.2229 2.15097 9.39967 1.36319 8.46982 0.822647C7.53997 0.282102 6.52616 0.00195312 5.49985 0.00195312C4.47353 0.00195312 3.45972 0.282102 2.52987 0.822647C1.60002 1.36319 0.776773 2.15097 0.11818 3.13045C0.0733254 3.19285 0.039 3.26583 0.0172389 3.34506C-0.00452225 3.42428 -0.013273 3.50814 -0.00849887 3.59165C-0.00372473 3.67517 0.0144775 3.75664 0.0450319 3.83124C0.0755862 3.90583 0.117868 3.97203 0.16937 4.02591C0.220872 4.07979 0.280548 4.12024 0.344852 4.14488C0.409156 4.16952 0.476781 4.17784 0.543717 4.16934C0.610654 4.16084 0.675535 4.1357 0.734516 4.09542C0.793498 4.05513 0.845375 4.00051 0.887074 3.9348C1.45133 3.09467 2.15691 2.4189 2.95399 1.95519C3.75108 1.49148 4.62025 1.25114 5.50014 1.25114C6.38004 1.25114 7.2492 1.49148 8.04629 1.95519C8.84338 2.4189 9.54896 3.09467 10.1132 3.9348C10.2006 4.05398 10.3217 4.12649 10.4511 4.13716C10.5805 4.14783 10.7082 4.09583 10.8075 3.99205C10.9068 3.88826 10.97 3.74072 10.9839 3.58028C10.9978 3.41984 10.9613 3.25893 10.8821 3.13119L10.8815 3.13045ZM5.49925 2.50073C4.76611 2.50078 4.0419 2.70092 3.37766 3.08703C2.71342 3.47314 2.12531 4.03584 1.65478 4.73545C1.60992 4.79786 1.5756 4.87084 1.55384 4.95006C1.53208 5.02929 1.52333 5.11315 1.5281 5.19666C1.53287 5.28017 1.55108 5.36164 1.58163 5.43623C1.61218 5.51083 1.65447 5.57703 1.70597 5.6309C1.75747 5.68478 1.81715 5.72524 1.88145 5.74988C1.94575 5.77452 2.01338 5.78283 2.08032 5.77433C2.14725 5.76584 2.21213 5.7407 2.27111 5.70041C2.3301 5.66012 2.38198 5.6055 2.42368 5.5398C2.79985 4.97975 3.27022 4.52927 3.80159 4.22016C4.33296 3.91105 4.91238 3.75085 5.49895 3.75085C6.08552 3.75085 6.66494 3.91105 7.19631 4.22016C7.72769 4.52927 8.19806 4.97975 8.57423 5.5398C8.6613 5.66093 8.78285 5.73513 8.91312 5.74666C9.04339 5.75819 9.17215 5.70615 9.27212 5.60157C9.37209 5.49699 9.43541 5.3481 9.44866 5.18642C9.46192 5.02474 9.42406 4.863 9.34312 4.73545C8.87254 4.03591 8.28442 3.47327 7.6202 3.08717C6.95597 2.70106 6.23178 2.50089 5.49866 2.50073H5.49925ZM5.49925 5.00035C5.05936 5.00031 4.62481 5.12035 4.22625 5.35203C3.8277 5.5837 3.47484 5.92136 3.19257 6.34119C3.10646 6.46807 3.06438 6.63232 3.07559 6.7978C3.08679 6.96329 3.15037 7.11645 3.25233 7.2236C3.35429 7.33076 3.48629 7.38313 3.61927 7.36918C3.75226 7.35523 3.87535 7.27612 3.96146 7.14924C4.14943 6.86905 4.38456 6.64366 4.65024 6.48899C4.91591 6.33433 5.20564 6.25415 5.49895 6.25415C5.79226 6.25415 6.082 6.33433 6.34767 6.48899C6.61335 6.64366 6.84847 6.86905 7.03644 7.14924C7.12351 7.27037 7.24505 7.34457 7.37533 7.3561C7.5056 7.36764 7.63436 7.31559 7.73433 7.21101C7.8343 7.10644 7.89762 6.95753 7.91087 6.79585C7.92413 6.63417 7.88628 6.47243 7.80534 6.34489C7.52306 5.92505 7.17021 5.5874 6.77165 5.35573C6.3731 5.12406 5.93855 5.00401 5.49866 5.00406L5.49925 5.00035Z" fill="#3EB261"/>
</g>
<defs>
<clipPath id="clip0_8431_33155">
<rect width="11" height="10" fill="white"/>
</clipPath>
</defs>
</svg>
