<svg width="10" height="13" viewBox="0 0 10 13" fill="none" xmlns="http://www.w3.org/2000/svg">
<path d="M5 0C3.67392 0 2.40215 0.50213 1.46447 1.39593C0.526784 2.28973 0 3.50198 0 4.766C0 7.28331 4.45455 12.6082 4.64545 12.8379C4.68805 12.8885 4.74202 12.9293 4.80338 12.9574C4.86475 12.9854 4.93194 13 5 13C5.06806 13 5.13525 12.9854 5.19662 12.9574C5.25798 12.9293 5.31195 12.8885 5.35455 12.8379C5.54545 12.6082 10 7.28331 10 4.766C10 3.50198 9.47322 2.28973 8.53553 1.39593C7.59785 0.50213 6.32608 0 5 0ZM5 6.06581C4.6404 6.06581 4.28887 5.96417 3.98987 5.77373C3.69087 5.5833 3.45783 5.31263 3.32022 4.99595C3.18261 4.67927 3.1466 4.3308 3.21675 3.99461C3.28691 3.65843 3.46007 3.34962 3.71435 3.10724C3.96863 2.86487 4.2926 2.69981 4.64529 2.63294C4.99798 2.56606 5.36356 2.60038 5.69579 2.73156C6.02802 2.86273 6.31198 3.08487 6.51176 3.36987C6.71155 3.65488 6.81818 3.98995 6.81818 4.33272C6.81818 4.79237 6.62662 5.23319 6.28565 5.5582C5.94467 5.88322 5.48221 6.06581 5 6.06581Z" fill="#6B7280"/>
</svg>
