<svg width="12" height="12" viewBox="0 0 12 12" fill="none" xmlns="http://www.w3.org/2000/svg">
<path fill-rule="evenodd" clip-rule="evenodd" d="M5.11015 10.9242C5.3281 11.0489 5.5103 11.1437 5.63895 11.2078L6 11.375L6.36105 11.2078C6.4897 11.1437 6.6719 11.0489 6.88985 10.9242C7.3248 10.6753 7.9065 10.3051 8.49005 9.82031C9.6446 8.86136 10.875 7.39561 10.875 5.48401C10.875 2.80046 8.6924 0.625 6 0.625C3.30761 0.625 1.125 2.80046 1.125 5.48401C1.125 7.39561 2.35538 8.86136 3.50993 9.82031C4.09351 10.3051 4.67519 10.6753 5.11015 10.9242ZM6 3.5C4.89543 3.5 4 4.39543 4 5.50001C4 6.60456 4.89543 7.50001 6 7.50001C7.10455 7.50001 8 6.60456 8 5.50001C8 4.39543 7.10455 3.5 6 3.5Z" fill="#5B616E"/>
</svg>
