<svg width="24" height="25" viewBox="0 0 24 25" fill="none" xmlns="http://www.w3.org/2000/svg">
<g clip-path="url(#clip0_19657_14252)">
<path d="M12 24.961C18.6274 24.961 24 19.5884 24 12.961C24 6.33358 18.6274 0.960999 12 0.960999C5.37258 0.960999 0 6.33358 0 12.961C0 19.5884 5.37258 24.961 12 24.961Z" fill="#5F7EDD"/>
<path d="M11.9988 16.2298L7.9668 13.8478L11.9988 19.531L16.0344 13.8478L11.9988 16.2298Z" fill="white"/>
<path d="M16.0312 13.0834L11.998 15.4666L7.96484 13.0834L11.998 6.39099L16.0312 13.0834Z" fill="white"/>
<path d="M16.0312 13.0834L11.998 11.2498V6.39099L16.0312 13.0834Z" fill="#C1CCF7"/>
<path d="M16.0336 13.8478L11.998 19.531V16.2298L16.0336 13.8478Z" fill="#C1CCF7"/>
<path d="M11.9988 11.2498V15.4666L7.9668 13.0834L11.9988 11.2498Z" fill="#C1CCF7"/>
<path d="M16.0312 13.0834L11.998 15.4666V11.2498L16.0312 13.0834Z" fill="#8198EE"/>
</g>
<defs>
<clipPath id="clip0_19657_14252">
<rect width="24" height="24" fill="white" transform="translate(0 0.960999)"/>
</clipPath>
</defs>
</svg>
