<svg width="14" height="14" viewBox="0 0 14 14" fill="none" xmlns="http://www.w3.org/2000/svg">
<path d="M4.31867 8.42393C2.59355 8.84229 1.3125 10.3969 1.3125 12.2507C1.3125 12.4923 1.50838 12.6882 1.75 12.6882H8.75C8.99162 12.6882 9.1875 12.4923 9.1875 12.2507C9.1875 10.3969 7.90644 8.84229 6.18135 8.42393C7.08902 8.05578 7.72917 7.16544 7.72917 6.12565C7.72917 4.75645 6.6192 3.64648 5.25 3.64648C3.88079 3.64648 2.77083 4.75645 2.77083 6.12565C2.77083 7.16544 3.41098 8.05578 4.31867 8.42393Z" fill="#6B7280"/>
<path d="M6.4082 2.97613C7.68996 3.4477 8.60422 4.67958 8.60422 6.125C8.60422 6.91583 8.33064 7.64213 7.87348 8.21503C8.6664 8.73151 9.29774 9.47526 9.67481 10.3542H12.2501C12.4917 10.3542 12.6876 10.1583 12.6876 9.91667C12.6876 8.06289 11.4066 6.50831 9.6814 6.08994C10.5891 5.72177 11.2292 4.83148 11.2292 3.79167C11.2292 2.42246 10.1193 1.3125 8.75005 1.3125C7.66657 1.3125 6.74543 2.00757 6.4082 2.97613Z" fill="#6B7280"/>
</svg>
