<svg width="14" height="12" viewBox="0 0 14 12" fill="none" xmlns="http://www.w3.org/2000/svg">
<path d="M9.81893 7.53674C9.7329 7.48828 9.64764 7.43586 9.56552 7.37787L8.24608 6.47299C7.84745 6.19863 7.37688 6.05223 6.89536 6.05274H4.47077C4.15456 6.05196 3.84133 6.11472 3.54911 6.23743C3.25688 6.36015 2.99145 6.54038 2.76809 6.76773C2.53506 7.0038 2.26788 7.20232 1.9758 7.35641C1.87246 7.41066 1.79007 7.49863 1.74188 7.60617C1.6937 7.71372 1.68252 7.83459 1.71014 7.94938C1.73776 8.06416 1.80258 8.16618 1.89417 8.23902C1.98576 8.31187 2.0988 8.35132 2.21513 8.35103H3.04418C3.09707 8.35103 3.1478 8.3297 3.18521 8.29171C3.22261 8.25372 3.24362 8.2022 3.24362 8.14847C3.24362 8.09474 3.22261 8.0432 3.18521 8.00521C3.1478 7.96722 3.09707 7.94589 3.04418 7.94589H2.21904C2.1871 7.94589 2.15646 7.933 2.13387 7.91005C2.11128 7.88711 2.09859 7.85597 2.09859 7.82352C2.09851 7.80118 2.10454 7.77925 2.116 7.76017C2.12746 7.7411 2.14391 7.72564 2.16351 7.71549C2.49158 7.54213 2.79171 7.31897 3.05357 7.05372C3.24002 6.86401 3.46157 6.71365 3.70546 6.61126C3.94936 6.50887 4.21078 6.45646 4.47468 6.45709H5.0167V7.94509H4.35424C4.30134 7.94509 4.25061 7.96642 4.21321 8.00441C4.17581 8.0424 4.15479 8.09394 4.15479 8.14767C4.15479 8.2014 4.17581 8.25292 4.21321 8.29091C4.25061 8.3289 4.30134 8.35026 4.35424 8.35026H9.82284C9.9016 8.35005 9.97708 8.31817 10.0328 8.2616C10.0885 8.20503 10.1198 8.12837 10.12 8.04837C10.1197 7.94316 10.0916 7.83997 10.0387 7.74956C9.98569 7.65915 9.90981 7.58483 9.81893 7.53436V7.53674ZM5.41636 7.94746V6.45949H6.89692C7.29865 6.45906 7.69126 6.58109 8.02395 6.80982L9.3434 7.71469C9.43491 7.77745 9.53033 7.83705 9.62731 7.89107C9.65174 7.90468 9.67286 7.92366 9.6891 7.94666L5.41636 7.94746Z" fill="#FD9B02"/>
<path d="M13.8311 8.59027L13.7685 8.48381C13.6503 8.28533 13.4926 8.11407 13.3055 7.98097C13.1185 7.84788 12.9062 7.75588 12.6821 7.71083L12.1675 7.60676V4.95572H13.4971C13.629 4.95551 13.7554 4.90221 13.8486 4.8075C13.9418 4.71279 13.9943 4.58439 13.9945 4.45045V0.505264C13.9943 0.371325 13.9418 0.24294 13.8486 0.14823C13.7554 0.0535203 13.629 0.000210102 13.4971 0H9.61777C9.4859 0.000210102 9.3595 0.0535203 9.26626 0.14823C9.17302 0.24294 9.12054 0.371325 9.12033 0.505264V2.00199C9.12033 2.05572 9.14135 2.10725 9.17875 2.14524C9.21615 2.18323 9.26688 2.20458 9.31978 2.20458C9.37267 2.20458 9.4234 2.18323 9.4608 2.14524C9.49821 2.10725 9.51922 2.05572 9.51922 2.00199V0.505264C9.51922 0.478716 9.5296 0.453255 9.54808 0.434483C9.56656 0.415711 9.59163 0.405172 9.61777 0.405172H13.5018C13.5279 0.405172 13.553 0.415711 13.5715 0.434483C13.59 0.453255 13.6003 0.478716 13.6003 0.505264V4.45045C13.6003 4.477 13.59 4.50246 13.5715 4.52123C13.553 4.54 13.5279 4.55056 13.5018 4.55056H9.61777C9.59163 4.55056 9.56656 4.54 9.54808 4.52123C9.5296 4.50246 9.51922 4.477 9.51922 4.45045V3.31837C9.51922 3.26465 9.49821 3.21312 9.4608 3.17513C9.4234 3.13713 9.37267 3.1158 9.31978 3.1158C9.26688 3.1158 9.21615 3.13713 9.17875 3.17513C9.14135 3.21312 9.12033 3.26465 9.12033 3.31837V4.45045C9.12054 4.58439 9.17302 4.71279 9.26626 4.8075C9.3595 4.90221 9.4859 4.95551 9.61777 4.95572H11.1288V7.39624L10.8637 7.34301C10.5188 7.25257 10.194 7.09647 9.90637 6.88302L8.58693 5.97816C8.08741 5.6344 7.49778 5.4509 6.89441 5.45144H4.46983C4.07351 5.45033 3.68089 5.52888 3.31457 5.68254C2.94826 5.8362 2.61548 6.06194 2.33542 6.34677C1.97545 6.71183 1.51859 6.96249 1.02067 7.06813L0.734413 7.12929C0.527198 7.17426 0.341361 7.28987 0.207766 7.45693C0.0741712 7.62399 0.000857858 7.83245 0 8.04767V10.0099C5.19499e-05 10.1246 0.0328012 10.2368 0.0942895 10.3329C0.155778 10.4291 0.243373 10.5051 0.346481 10.5517L1.14112 10.91C1.19745 11.207 1.3508 11.476 1.57635 11.6735C1.8019 11.8709 2.08644 11.9853 2.38394 11.9981C2.68144 12.0109 2.97448 11.9213 3.21563 11.7439C3.45678 11.5664 3.63193 11.3116 3.71274 11.0205H10.3358C10.414 11.3022 10.5807 11.5502 10.8104 11.7269C11.0402 11.9036 11.3205 11.9992 11.6087 11.9992C11.8968 11.9992 12.1771 11.9036 12.4069 11.7269C12.6367 11.5502 12.8033 11.3022 12.8816 11.0205H13.2601C13.4561 11.02 13.644 10.9407 13.7826 10.7998C13.9211 10.659 13.999 10.468 13.9992 10.2689V9.21867C13.9992 8.99721 13.9397 8.77995 13.8272 8.59027H13.8311ZM11.5277 4.95572H11.7709V7.52573L11.5277 7.47647V4.95572ZM3.09642 11.32C2.94307 11.4748 2.74113 11.5702 2.52573 11.5894C2.31032 11.6087 2.09509 11.5506 1.91746 11.4254C1.73983 11.3001 1.61106 11.1156 1.55352 10.9038C1.49599 10.6921 1.51335 10.4666 1.60257 10.2665V10.2578L1.61743 10.2276L1.62447 10.2133L1.63855 10.1871L1.64872 10.1696L1.66279 10.1466L1.67609 10.1267L1.68939 10.1069L1.70581 10.0846L1.71911 10.0679L1.73944 10.0433L1.75117 10.0298L1.78246 9.99643L1.78871 9.99008L1.81687 9.96306L1.82391 9.95671L1.85207 9.93207C2.01675 9.7971 2.22197 9.7235 2.43358 9.7235C2.64518 9.7235 2.8504 9.7971 3.01508 9.93207L3.04559 9.95829L3.05106 9.96306L3.08547 9.99643L3.12067 10.0338L3.13475 10.0512L3.15195 10.0719L3.16995 10.0965L3.18011 10.11L3.20123 10.141V10.1466C3.31724 10.3271 3.36866 10.5427 3.34688 10.7572C3.32509 10.9717 3.23143 11.172 3.08156 11.3247L3.09642 11.32ZM12.266 11.32C12.1041 11.4834 11.8884 11.5803 11.6604 11.5919C11.4324 11.6034 11.2082 11.5289 11.0311 11.3826C10.8539 11.2363 10.7364 11.0286 10.701 10.7995C10.6656 10.5705 10.7149 10.3362 10.8394 10.1418V10.1362L10.8606 10.1053L10.8707 10.0918L10.8895 10.0671L10.9067 10.0465L10.9216 10.029C10.9325 10.0163 10.9442 10.0036 10.9568 9.99167C11.0425 9.90445 11.1444 9.83525 11.2565 9.78804C11.3687 9.74083 11.4888 9.71654 11.6102 9.71654C11.7316 9.71654 11.8518 9.74083 11.9639 9.78804C12.076 9.83525 12.1779 9.90445 12.2637 9.99167C12.2754 10.0036 12.2871 10.0163 12.2989 10.029L12.3137 10.0465L12.3309 10.0671L12.3489 10.0918L12.3591 10.1053L12.3802 10.1362V10.1418C12.4962 10.3224 12.5477 10.5379 12.5259 10.7524C12.5041 10.9669 12.4104 11.1673 12.2606 11.32H12.266ZM13.6042 10.2697C13.6042 10.3616 13.5683 10.4497 13.5044 10.5146C13.4404 10.5796 13.3537 10.6161 13.2632 10.6161H12.9348C12.9273 10.3225 12.8241 10.0398 12.6415 9.81213V9.80735L12.6063 9.76604L12.5977 9.75571L12.5585 9.71361L12.5515 9.70646C12.4288 9.58038 12.2826 9.48035 12.1215 9.41216C11.9604 9.34396 11.7875 9.30897 11.613 9.30924C11.5258 9.30909 11.4388 9.3176 11.3533 9.33466C11.097 9.38626 10.8618 9.51434 10.6775 9.70249L10.6713 9.70963L10.6322 9.75175L10.6236 9.76207C10.6118 9.77558 10.5993 9.78987 10.5884 9.80417V9.80815C10.4055 10.0357 10.302 10.3185 10.2943 10.6121H3.76592C3.75835 10.3178 3.65462 10.0344 3.47106 9.80656L3.43352 9.76286L3.42648 9.75492L3.38033 9.70567C3.13208 9.45399 2.79566 9.31263 2.44492 9.31263C2.09417 9.31263 1.75775 9.45399 1.5095 9.70567L1.46648 9.75175L1.45475 9.76604L1.42581 9.8002L1.4133 9.8153L1.38436 9.85264L1.37575 9.86455C1.35073 9.89951 1.32752 9.93526 1.30615 9.9718C1.29598 9.99007 1.28581 10.0083 1.27564 10.0266C1.20601 10.1612 1.15946 10.3068 1.13799 10.4572L0.516201 10.1768C0.483554 10.162 0.455831 10.1379 0.436394 10.1075C0.416957 10.077 0.406643 10.0415 0.406704 10.0052V8.04291C0.407115 7.92053 0.448786 7.80198 0.524779 7.70701C0.600772 7.61204 0.706501 7.54638 0.824358 7.52096L1.11062 7.45978C1.68396 7.33815 2.21007 7.0497 2.6248 6.62959C2.86788 6.38223 3.15673 6.18616 3.47473 6.05268C3.79272 5.91919 4.13357 5.85095 4.47765 5.85185H6.90224C7.42607 5.85128 7.93802 6.01041 8.37184 6.30865L9.69128 7.21351C10.0225 7.45762 10.3969 7.63458 10.7941 7.73466L12.6141 8.10249C12.7832 8.13681 12.9434 8.20653 13.0845 8.30719C13.2256 8.40786 13.3446 8.53728 13.4337 8.6872L13.4971 8.79364C13.5723 8.92024 13.612 9.06527 13.6121 9.21311L13.6042 10.2697Z" fill="#FD9B02"/>
<path d="M2.87115 10.1233C2.78647 10.0374 2.67861 9.97883 2.56119 9.95514C2.44377 9.93145 2.32208 9.94365 2.21149 9.9902C2.1009 10.0368 2.00638 10.1156 1.93988 10.2167C1.87338 10.3178 1.83789 10.4367 1.83789 10.5582C1.83789 10.6798 1.87338 10.7987 1.93988 10.8998C2.00638 11.0009 2.1009 11.0797 2.21149 11.1263C2.32208 11.1728 2.44377 11.1851 2.56119 11.1614C2.67861 11.1377 2.78647 11.0792 2.87115 10.9932C2.92788 10.9364 2.97293 10.8686 3.00368 10.794C3.03442 10.7193 3.05026 10.6392 3.05026 10.5582C3.05026 10.4773 3.03442 10.3972 3.00368 10.3225C2.97293 10.2479 2.92788 10.1801 2.87115 10.1233ZM2.58881 10.7064C2.5599 10.7357 2.52311 10.7556 2.48307 10.7636C2.44304 10.7717 2.40156 10.7674 2.36387 10.7515C2.32619 10.7357 2.29398 10.7088 2.27132 10.6743C2.24867 10.6398 2.23658 10.5993 2.23658 10.5579C2.23658 10.5164 2.24867 10.4759 2.27132 10.4414C2.29398 10.4069 2.32619 10.38 2.36387 10.3641C2.40156 10.3483 2.44304 10.3441 2.48307 10.3521C2.52311 10.3601 2.5599 10.38 2.58881 10.4093C2.60815 10.4287 2.62351 10.4519 2.63399 10.4774C2.64447 10.5029 2.64987 10.5302 2.64987 10.5579C2.64987 10.5855 2.64447 10.6128 2.63399 10.6384C2.62351 10.6639 2.60815 10.687 2.58881 10.7064Z" fill="#FD9B02"/>
<path d="M12.041 10.1232C11.9419 10.0227 11.8116 9.96015 11.6722 9.94629C11.5328 9.93242 11.393 9.96808 11.2766 10.0472C11.1601 10.1263 11.0743 10.244 11.0338 10.3801C10.9932 10.5163 11.0004 10.6625 11.0541 10.7939C11.1077 10.9253 11.2046 11.0338 11.3282 11.1007C11.4517 11.1677 11.5944 11.1891 11.7317 11.1612C11.8691 11.1334 11.9927 11.058 12.0814 10.948C12.1702 10.838 12.2187 10.7 12.2185 10.5578C12.2187 10.477 12.2032 10.397 12.1727 10.3224C12.1422 10.2478 12.0975 10.1801 12.041 10.1232ZM11.7587 10.7063C11.7249 10.7407 11.6805 10.7621 11.633 10.767C11.5855 10.7718 11.5378 10.7598 11.498 10.7329C11.4582 10.706 11.4289 10.666 11.4149 10.6196C11.401 10.5732 11.4033 10.5233 11.4215 10.4784C11.4397 10.4336 11.4726 10.3965 11.5147 10.3735C11.5567 10.3506 11.6054 10.3431 11.6522 10.3525C11.6991 10.3619 11.7413 10.3874 11.7717 10.4248C11.8021 10.4623 11.8188 10.5093 11.8189 10.5578C11.819 10.5854 11.8137 10.6127 11.8034 10.6382C11.793 10.6637 11.7778 10.6868 11.7587 10.7063Z" fill="#FD9B02"/>
</svg>
