<svg width="26" height="25" viewBox="0 0 26 25" fill="none" xmlns="http://www.w3.org/2000/svg">
<g clip-path="url(#clip0_19657_14232)">
<g clip-path="url(#clip1_19657_14232)">
<path d="M12.6973 25C19.6008 25 25.1973 19.4036 25.1973 12.5C25.1973 5.59644 19.6008 0 12.6973 0C5.79371 0 0.197266 5.59644 0.197266 12.5C0.197266 19.4036 5.79371 25 12.6973 25Z" fill="#2E79CC"/>
<path d="M15.938 14.2375C15.938 12.5275 14.918 11.9363 12.8705 11.6988C11.413 11.4988 11.1205 11.1163 11.1205 10.425C11.1205 9.73378 11.6118 9.30003 12.5855 9.30003C12.9332 9.24562 13.2888 9.32017 13.5853 9.50964C13.8818 9.69911 14.0988 9.99043 14.1955 10.3288C14.221 10.4007 14.2677 10.4632 14.3296 10.5079C14.3915 10.5526 14.4655 10.5773 14.5418 10.5788H15.308C15.3963 10.5791 15.4811 10.5449 15.5445 10.4835C15.6078 10.422 15.6445 10.3382 15.6468 10.25V10.2275C15.5534 9.69868 15.2875 9.21565 14.8906 8.85384C14.4937 8.49203 13.9883 8.2718 13.453 8.22753V7.01253C13.453 6.82003 13.308 6.67503 13.063 6.62128H12.2955C12.1043 6.62128 11.958 6.76628 11.9118 7.01253V8.13753C11.2859 8.16183 10.6921 8.42103 10.2487 8.86348C9.80535 9.30593 9.54491 9.89917 9.5193 10.525C9.5193 12.1363 10.493 12.775 12.5405 13.0175C13.9055 13.255 14.3505 13.555 14.3505 14.3288C14.3505 15.1025 13.668 15.6488 12.7405 15.6488C11.4668 15.6488 11.0305 15.1113 10.8843 14.3825C10.8697 14.3014 10.8273 14.2279 10.7643 14.1747C10.7013 14.1215 10.6217 14.092 10.5393 14.0913H9.7418C9.69846 14.0903 9.65535 14.0978 9.61493 14.1135C9.57451 14.1292 9.53757 14.1527 9.50623 14.1826C9.47489 14.2126 9.44975 14.2484 9.43226 14.288C9.41477 14.3277 9.40527 14.3704 9.4043 14.4138V14.475C9.49215 15.1097 9.80104 15.6931 10.2766 16.1225C10.7522 16.5519 11.364 16.7997 12.0043 16.8225V18C12.0043 18.1925 12.1493 18.3375 12.3955 18.3838H13.1618C13.2626 18.3785 13.358 18.3366 13.4301 18.266C13.5021 18.1953 13.5459 18.1007 13.553 18V16.8275C14.2053 16.7694 14.8137 16.4743 15.2631 15.998C15.7125 15.5216 15.9718 14.8971 15.9918 14.2425L15.938 14.2375Z" fill="white"/>
<path d="M10.2108 19.33C8.79797 18.8204 7.57665 17.8875 6.71338 16.6584C5.85011 15.4293 5.3869 13.9639 5.3869 12.4619C5.3869 10.9599 5.85011 9.49452 6.71338 8.26543C7.57665 7.03635 8.79797 6.1034 10.2108 5.59378C10.3037 5.55143 10.3814 5.48165 10.4335 5.39383C10.4856 5.30601 10.5095 5.20435 10.5021 5.10253V4.44253C10.506 4.35475 10.479 4.26837 10.4258 4.19847C10.3726 4.12856 10.2965 4.07956 10.2108 4.06003C10.1401 4.0518 10.069 4.07104 10.0121 4.11378C8.23651 4.67901 6.68677 5.79441 5.58702 7.29863C4.48727 8.80285 3.89453 10.6179 3.89453 12.4813C3.89453 14.3446 4.48727 16.1597 5.58702 17.6639C6.68677 19.1682 8.23651 20.2835 10.0121 20.8488C10.0804 20.8889 10.1618 20.9002 10.2385 20.8803C10.3151 20.8603 10.3807 20.8108 10.4208 20.7425C10.438 20.7135 10.4503 20.6818 10.4571 20.6488C10.5021 20.6038 10.5021 20.5575 10.5021 20.4575V19.775C10.4885 19.6842 10.4555 19.5975 10.4052 19.5206C10.3549 19.4438 10.2886 19.3788 10.2108 19.33ZM15.3808 4.10503C15.3145 4.065 15.235 4.05291 15.1598 4.07143C15.0846 4.08994 15.0198 4.13754 14.9796 4.20378C14.9619 4.23255 14.9496 4.26433 14.9433 4.29753C14.8971 4.35128 14.8971 4.39753 14.8971 4.49628V5.17878C14.9054 5.27632 14.936 5.37065 14.9865 5.45451C15.037 5.53838 15.106 5.60954 15.1883 5.66253C16.5936 6.17659 17.807 7.11 18.6643 8.33643C19.5215 9.56285 19.9813 11.0231 19.9813 12.5194C19.9813 14.0157 19.5215 15.476 18.6643 16.7024C17.807 17.9288 16.5936 18.8622 15.1883 19.3763C15.0946 19.4176 15.0162 19.4872 14.964 19.5752C14.9118 19.6633 14.8884 19.7655 14.8971 19.8675V20.55C14.891 20.6393 14.917 20.7277 14.9704 20.7995C15.0238 20.8712 15.1011 20.9215 15.1883 20.9413C15.2569 20.9478 15.3255 20.9286 15.3808 20.8875C17.1576 20.3167 18.7073 19.1965 19.8067 17.6885C20.9061 16.1805 21.4985 14.3625 21.4985 12.4963C21.4985 10.6301 20.9061 8.81202 19.8067 7.30402C18.7073 5.79602 17.1576 4.67591 15.3808 4.10503Z" fill="white"/>
</g>
</g>
<defs>
<clipPath id="clip0_19657_14232">
<rect width="26" height="25" fill="white"/>
</clipPath>
<clipPath id="clip1_19657_14232">
<rect width="25" height="25" fill="white" transform="translate(0.197266)"/>
</clipPath>
</defs>
</svg>
