<svg width="11" height="11" viewBox="0 0 11 11" fill="none" xmlns="http://www.w3.org/2000/svg">
<g clip-path="url(#clip0_8431_33122)">
<path d="M10.6449 3.8622C10.6269 3.80684 10.5937 3.75762 10.5492 3.72009C10.5047 3.68256 10.4506 3.65821 10.393 3.64978L7.08818 3.16978L5.61007 0.174062C5.58425 0.121808 5.54433 0.077817 5.49482 0.0470584C5.44531 0.0162998 5.38818 0 5.3299 0C5.27161 0 5.21449 0.0162998 5.16498 0.0470584C5.11547 0.077817 5.07555 0.121808 5.04973 0.174062L3.57161 3.16978L0.266789 3.64978C0.209232 3.65829 0.155194 3.6827 0.11076 3.72026C0.0663253 3.75783 0.0332596 3.80705 0.0152855 3.86239C-0.00268855 3.91772 -0.0048571 3.97698 0.00902403 4.03348C0.0229052 4.08999 0.0522847 4.14149 0.0938546 4.1822L2.48498 6.51342L1.92124 9.80735C1.91137 9.86483 1.91777 9.92393 1.93973 9.97796C1.96169 10.032 1.99834 10.0788 2.04552 10.1131C2.0927 10.1474 2.14853 10.1678 2.20671 10.172C2.26488 10.1762 2.32307 10.164 2.37469 10.1369L5.33024 8.58183L8.28579 10.1355C8.33741 10.1627 8.3956 10.1748 8.45377 10.1706C8.51194 10.1664 8.56778 10.146 8.61496 10.1117C8.66214 10.0774 8.69878 10.0306 8.72075 9.9766C8.74271 9.92257 8.74911 9.86347 8.73923 9.80599L8.17481 6.51478L10.5666 4.18356C10.6084 4.14269 10.6379 4.0909 10.6518 4.03409C10.6656 3.97728 10.6632 3.91773 10.6449 3.8622Z" fill="#FEC21D"/>
</g>
<defs>
<clipPath id="clip0_8431_33122">
<rect width="10.66" height="10.1691" fill="white"/>
</clipPath>
</defs>
</svg>
