<svg width="13" height="13" viewBox="0 0 13 13" fill="none" xmlns="http://www.w3.org/2000/svg">
<path d="M4.33203 5.95898H9.28021C10.0738 5.95898 10.4705 5.95898 10.7101 6.35727C10.9497 6.75556 10.8086 7.00944 10.5264 7.51731C9.96628 8.5254 8.87959 9.20898 7.63084 9.20898C6.79423 9.20898 6.03032 8.90213 5.44884 8.39648" stroke="#964A88" stroke-linecap="round" stroke-linejoin="round"/>
<path d="M4.33464 5.95898V2.16732C4.33464 1.65663 4.33464 1.40129 4.17599 1.24263C4.01733 1.08398 3.76199 1.08398 3.2513 1.08398C2.74061 1.08398 2.48527 1.08398 2.32662 1.24263C2.16797 1.40129 2.16797 1.65663 2.16797 2.16732V5.95898C2.16797 6.46967 2.16797 6.72501 2.32662 6.88366C2.48527 7.04232 2.74061 7.04232 3.2513 7.04232C3.76199 7.04232 4.01733 7.04232 4.17599 6.88366C4.33464 6.72501 4.33464 6.46967 4.33464 5.95898Z" stroke="#964A88" stroke-linecap="round" stroke-linejoin="round"/>
<path d="M3.79297 3.79102H5.41797" stroke="#964A88" stroke-linecap="round" stroke-linejoin="round"/>
<path d="M8.66797 9.20768C8.1263 9.74935 8.66797 11.3743 9.75109 11.916H2.16797C2.70964 11.3743 3.63047 9.64102 2.98047 7.04102" stroke="#964A88" stroke-linecap="round" stroke-linejoin="round"/>
</svg>
