<svg width="36" height="26" viewBox="0 0 36 26" fill="none" xmlns="http://www.w3.org/2000/svg">
<g clip-path="url(#clip0_19657_14199)">
<path d="M35.4353 23.0596C35.4353 24.2137 34.4976 25.1492 33.3407 25.1492H2.09463C0.937791 25.1493 0 24.2137 0 23.0596V2.86115C0 1.70709 0.937791 0.771606 2.09463 0.771606H33.3407C34.4976 0.771606 35.4353 1.70716 35.4353 2.86115V23.0596Z" fill="white"/>
<path d="M7.86528 13.102L7.03324 9.12038C6.89102 8.57131 6.47714 8.40796 5.96001 8.38635H2.14531L2.11133 8.56827C5.08243 9.28677 7.04833 11.0201 7.86528 13.102Z" fill="#F79F1A"/>
<path d="M16.7033 8.4649H14.2386L12.6992 17.4764H15.1599L16.7033 8.4649Z" fill="#059BBF"/>
<path d="M9.36538 17.4678L13.2418 8.47144H10.6332L8.22176 14.6179L7.96437 13.6899C7.49167 12.5734 6.1407 10.9665 4.55469 9.95496L6.75901 17.4708L9.36538 17.4678Z" fill="#059BBF"/>
<path d="M23.735 14.5313C23.7442 13.5082 23.0857 12.7278 21.6666 12.0833C20.8042 11.667 20.2785 11.3894 20.2848 10.9669C20.2848 10.5937 20.73 10.1928 21.6945 10.1928C22.5015 10.1804 23.0826 10.3562 23.5371 10.5382L23.7598 10.64L24.0938 8.6878C23.6053 8.50574 22.8416 8.31146 21.8864 8.31146C19.4532 8.31146 17.7405 9.53284 17.725 11.2846C17.7094 12.58 18.9494 13.3016 19.883 13.7333C20.8413 14.1734 21.1629 14.455 21.1567 14.8498C21.1506 15.4534 20.393 15.7287 19.685 15.7287C18.6988 15.7287 18.1763 15.593 17.3659 15.2562L17.051 15.1119L16.7051 17.1313C17.2797 17.3818 18.3431 17.6008 19.447 17.6099C22.0346 17.6099 23.7165 16.4041 23.735 14.5313Z" fill="#059BBF"/>
<path d="M26.6625 16.1266C26.9438 16.1266 29.4573 16.1297 29.8161 16.1297C29.8903 16.4435 30.116 17.4805 30.116 17.4805H32.4007L30.4065 8.4751H28.5052C27.9146 8.4751 27.4758 8.63548 27.216 9.22135L23.5586 17.4805H26.1465C26.1463 17.4805 26.5667 16.3704 26.6625 16.1266ZM28.3505 11.7626C28.3383 11.7873 28.5546 11.2414 28.6783 10.9022L28.8452 11.6793C28.8452 11.6793 29.3152 13.8321 29.4141 14.2824H27.3705C27.5746 13.7643 28.3505 11.7626 28.3505 11.7626Z" fill="#059BBF"/>
<path d="M33.3407 0.771606H2.09463C0.937791 0.771606 0 1.70709 0 2.86116V5.02982H35.4353V2.86116C35.4353 1.70709 34.4976 0.771606 33.3407 0.771606Z" fill="#059BBF"/>
<path d="M33.3407 25.1496H2.09463C0.937791 25.1496 0 24.214 0 23.06V20.8914H35.4353V23.06C35.4353 24.214 34.4976 25.1496 33.3407 25.1496Z" fill="#F79F1A"/>
<path opacity="0.15" d="M1.48918 23.0596V2.86115C1.48918 1.70709 2.42704 0.771606 3.58395 0.771606H2.09456C0.937791 0.771606 0 1.70709 0 2.86115V23.0597C0 24.2137 0.937791 25.1493 2.09463 25.1493H3.58402C2.42711 25.1493 1.48918 24.2137 1.48918 23.0596Z" fill="#202121"/>
</g>
<defs>
<clipPath id="clip0_19657_14199">
<rect width="35.4353" height="25.922" fill="white"/>
</clipPath>
</defs>
</svg>
